# xmcd
#
# Track frame offsets:
#	150
#	24588
#	34988
#	50743
#	60830
#	75988
#	93755
#	119485
#	137613
#	153063
#	172920
#	182955
#
# Disc length: 2629 seconds
#
# Revision: 1
# Processed by: cddbd v1.5PL3 Copyright (c) Steve Scherf et al.
# Submitted via: EasyCDDAExtractor 5.0.6
#
DISCID=8c0a430c
DTITLE=余天 - 經典回顧
DYEAR=1900
DGENRE=POP
TTITLE0=黃色的故事
TTITLE1=汪洋中的一條船
TTITLE2=問黃昏
TTITLE3=知己
TTITLE4=那一句誓言
TTITLE5=慈母的良言
TTITLE6=又是黃昏
TTITLE7=癡心
TTITLE8=珍重道別離
TTITLE9=不出聲的眼淚\
TTITLE10=對我說個明白
TTITLE11=溫暖的春風
EXTD=
EXTT0=
EXTT1=
EXTT2=
EXTT3=
EXTT4=
EXTT5=
EXTT6=
EXTT7=
EXTT8=
EXTT9=
EXTT10=
EXTT11=
PLAYORDER=
